M48
;GenerationSoftware,Autodesk,EAGLE,9.2.2*%
;CreationDate,2019-04-19T20:31:18Z*%
FMAT,2
ICI,OFF
INCH,TZ,00.0000
T4C0.0217
T3C0.0315
T2C0.0394
T1C0.0400
%
G90
M72
T1
X6780Y16390
X6780Y14610
X14220Y16390
X14220Y14610
X16780Y16390
X16780Y14610
X23500Y5550
X16780Y24610
X24500Y5450
X25500Y5550
X14220Y26390
X14220Y24610
X16780Y26390
X24220Y14610
X26780Y16390
X26780Y14610
X14220Y6390
X14220Y4610
X16780Y6390
X16780Y4610
X4220Y16390
X4220Y14610
X22500Y5450
X24220Y16390
T2
X500Y14000
X30500Y29500
X20000Y30500
X30000Y30000
X20000Y1000
X1000Y11500
X13500Y30500
X21000Y30500
X15500Y30500
X15500Y1500
X4516Y4850
X500Y2500
X14500Y500
X1000Y10000
X10000Y30500
X10000Y1000
X1000Y20500
X1500Y30500
X1500Y1000
X695Y29500
X11000Y30500
X1000Y19500
X30500Y1500
X30500Y500
X8453Y5157
X2547Y5157
X11000Y1000
X21000Y1000
X6484Y6150
X5500Y6150
X4516Y6150
X6484Y4850
X5500Y4850
T3
X26484Y10000
X24516Y10000
T4
X5500Y24500
X19000Y25000
X25000Y28500
X25500Y22000
X24500Y21500
X23000Y21500
X25000Y30500
X26000Y1500
X29000Y1500
X5500Y2000
X6000Y8500
X24000Y20000
X27000Y20000
X15500Y21000
X18846Y21000
X17000Y20000
X19000Y20000
X26000Y29000
X5000Y22500
X4500Y24500
X14500Y30000
X17154Y30000
X12000Y11500
X9000Y11500
X2500Y11500
X20000Y11500
X22000Y11500
X29000Y11500
X20000Y25000
X29000Y25000
X29000Y10000
X21000Y10000
X19000Y10000
X12000Y10000
X9000Y10000
X3500Y11500
X29000Y26000
X21000Y24500
X29000Y24500
X30000Y28000
X7500Y1500
X2500Y20500
X9500Y1500
X10000Y20500
X12000Y20500
X19000Y20500
X22000Y20500
X29000Y20500
X10000Y6500
X11500Y6500
X4500Y20500
X8000Y20500
X13000Y1500
X19500Y1500
X17000Y1500
X9000Y29500
X12000Y29500
X19000Y29500
X21500Y29500
X29000Y29500
X22500Y25500
X22500Y26500
X23000Y29500
X25500Y29500
X26000Y21000
X26000Y19000
X26000Y17000
X26000Y14000
X26000Y12000
X25000Y12000
X25000Y14000
X25000Y17000
X25000Y19000
X25000Y21000
X21500Y5000
X20500Y5000
X20500Y26500
X23500Y26500
X30000Y25000
X25000Y25500
X2500Y1500
X25500Y9000
X11000Y19500
X4000Y9500
X2500Y19500
X5500Y9500
X19500Y19500
X22000Y19500
X29000Y19500
X19500Y21000
X22000Y21000
X3500Y19500
X6500Y19500
X7500Y19500
X8500Y9500
X11500Y9500
X15000Y9000
X19000Y9500
X28500Y9500
X27500Y10000
X26000Y2500
X30000Y5500
X5500Y10500
X3000Y10500
X5500Y12000
X12500Y11000
X2500Y10000
X9500Y15000
X12500Y15000
X19000Y15000
X15500Y12500
X5500Y18500
X10500Y16500
X10500Y18500
X15500Y18500
X23000Y12000
X23000Y14610
X10500Y22500
X28500Y21000
X27000Y21500
X17000Y21500
X19500Y21500
X2000Y21500
X7000Y21500
X15500Y11000
X10500Y24000
X15500Y22000
X15500Y28500
X5500Y28500
X9000Y19500
M30